<?xml version="1.0" standalone="no"?>
<!DOCTYPE svg PUBLIC "-//W3C//DTD SVG 20010904//EN"
 "http://www.w3.org/TR/2001/REC-SVG-20010904/DTD/svg10.dtd">
<svg version="1.0" xmlns="http://www.w3.org/2000/svg"
 width="700.000000pt" height="700.000000pt" viewBox="0 0 700.000000 700.000000"
 preserveAspectRatio="xMidYMid meet">
<metadata>
Created by potrace 1.14, written by Peter Selinger 2001-2017
</metadata>
<g transform="translate(0.000000,700.000000) scale(0.100000,-0.100000)"
fill="#000000" stroke="none">
<path d="M3451 6983 c-30 -16 -257 -382 -1713 -2763 -923 -1510 -1690 -2768
-1704 -2797 -51 -102 -41 -224 27 -326 83 -125 690 -462 1204 -669 909 -365
1926 -500 2925 -388 671 76 1337 269 1955 569 320 155 695 377 767 454 76 80
106 216 71 317 -23 67 -3389 5576 -3419 5596 -35 24 -76 26 -113 7z m276 -686
c182 -306 219 -374 206 -381 -9 -4 -66 -6 -127 -4 -92 4 -128 11 -208 38 l-98
34 -97 -34 c-81 -27 -117 -34 -209 -38 -61 -2 -118 0 -127 4 -13 7 24 75 206
381 122 205 224 373 227 373 3 0 105 -168 227 -373z m-186 -563 c129 -45 324
-58 466 -28 41 8 79 12 83 7 20 -23 2140 -3502 2140 -3511 0 -16 -240 -175
-412 -274 -593 -340 -1252 -542 -1948 -599 -174 -14 -578 -14 -745 0 -814 69
-1556 327 -2223 773 -99 66 -133 94 -129 106 3 14 2130 3498 2141 3510 2 2 41
-4 87 -14 117 -24 304 -15 414 19 44 13 81 25 81 26 1 0 21 -6 45 -15z"/>
<path d="M3360 5227 c-312 -106 -400 -508 -160 -730 181 -168 434 -165 606 7
106 106 150 238 126 376 -21 121 -79 215 -175 287 -112 82 -265 105 -397 60z"/>
<path d="M2523 4145 c-132 -36 -240 -124 -296 -242 -30 -64 -32 -74 -32 -184
0 -113 1 -117 37 -190 58 -118 159 -201 283 -233 203 -53 409 42 503 233 36
73 37 77 37 191 0 111 -1 118 -34 185 -63 127 -182 219 -320 245 -70 13 -114
12 -178 -5z"/>
<path d="M4273 4145 c-132 -36 -240 -124 -296 -242 -30 -64 -32 -74 -32 -184
0 -113 1 -117 37 -190 58 -118 159 -201 283 -233 203 -53 409 42 503 233 36
73 37 77 37 191 0 111 -1 118 -34 185 -63 127 -182 219 -320 245 -70 13 -114
12 -178 -5z"/>
<path d="M1835 2933 c-76 -27 -136 -66 -187 -121 -204 -218 -133 -566 142
-695 126 -60 296 -47 418 33 141 91 220 267 194 429 -25 148 -117 271 -252
335 -57 27 -78 31 -165 33 -77 3 -112 -1 -150 -14z"/>
<path d="M4905 2937 c-208 -69 -341 -277 -307 -481 39 -236 226 -387 464 -374
67 3 97 10 148 35 343 161 345 635 3 796 -60 28 -80 32 -168 34 -63 2 -115 -2
-140 -10z"/>
<path d="M3410 2616 c-227 -49 -381 -272 -342 -496 45 -260 292 -421 546 -355
163 43 288 182 318 355 39 230 -122 456 -356 499 -72 13 -95 13 -166 -3z"/>
</g>
</svg>
